<svg width="64" height="64" viewBox="0 0 64 64" fill="none" xmlns="http://www.w3.org/2000/svg">
<path fill-rule="evenodd" clip-rule="evenodd" d="M47.6602 16.2267L41.0935 18.2L45.4668 29.6373C48.1022 28.9918 50.8846 29.3748 53.2476 30.7085C55.6105 32.0422 57.3764 34.2263 58.1857 36.8161C58.995 39.4059 58.787 42.2068 57.6039 44.6486C56.4208 47.0905 54.3517 48.9896 51.8176 49.9596C49.2836 50.9295 46.4751 50.8973 43.964 49.8695C41.4529 48.8416 39.4278 46.8955 38.3011 44.4272C37.1744 41.9588 37.0306 39.1539 37.8992 36.5833C38.7677 34.0127 40.5832 31.8698 42.9762 30.5907L40.7788 24.844L33.2028 40.58C33.0936 40.8061 32.9228 40.9967 32.71 41.13C32.4973 41.2632 32.2512 41.3337 32.0002 41.3333H26.5842C26.2419 44.0231 24.8883 46.4815 22.7985 48.2091C20.7087 49.9366 18.0395 50.8036 15.3335 50.6338C12.6274 50.4641 10.0875 49.2702 8.23001 47.295C6.37253 45.3198 5.33686 42.7114 5.3335 40C5.33148 37.2853 6.36462 34.6719 8.2224 32.6925C10.0802 30.713 12.6228 29.5163 15.3322 29.3463C18.0416 29.1763 20.7139 30.0458 22.8045 31.7775C24.8952 33.5093 26.2468 35.973 26.5842 38.6667H29.9175L23.4108 20.448C23.3595 20.3042 23.3334 20.1527 23.3335 20H21.3335C20.9799 20 20.6407 19.8595 20.3907 19.6095C20.1406 19.3594 20.0002 19.0203 20.0002 18.6667C20.0002 18.3131 20.1406 17.9739 20.3907 17.7239C20.6407 17.4738 20.9799 17.3333 21.3335 17.3333H27.3335C27.6871 17.3333 28.0263 17.4738 28.2763 17.7239C28.5264 17.9739 28.6668 18.3131 28.6668 18.6667C28.6668 19.0203 28.5264 19.3594 28.2763 19.6095C28.0263 19.8595 27.6871 20 27.3335 20H26.0828L28.5388 26.876L39.3748 21.1733L38.0882 17.8093C38.0227 17.638 37.9932 17.4551 38.0017 17.2718C38.0101 17.0886 38.0563 16.9091 38.1372 16.7446C38.2182 16.58 38.3322 16.4339 38.4722 16.3155C38.6122 16.197 38.7752 16.1087 38.9508 16.056L46.8935 13.6733L47.6602 16.2267ZM29.4442 29.4133L32.0735 36.7733L37.7135 25.0613L29.4442 29.4133ZM46.7548 40.476L43.9375 33.1067C42.2099 34.126 40.9282 35.7571 40.3464 37.6768C39.7647 39.5965 39.9253 41.6647 40.7965 43.4715C41.6678 45.2783 43.186 46.6919 45.0503 47.4322C46.9146 48.1725 48.989 48.1853 50.8624 47.4683C52.7357 46.7512 54.2714 45.3566 55.165 43.5607C56.0585 41.7648 56.2449 39.6988 55.687 37.772C55.1291 35.8452 53.8678 34.1983 52.1529 33.1577C50.4381 32.117 48.3948 31.7586 46.4282 32.1533L49.2455 39.524C49.366 39.853 49.3522 40.2163 49.207 40.5352C49.0618 40.8541 48.7969 41.103 48.4696 41.2281C48.1423 41.3532 47.7789 41.3444 47.458 41.2037C47.1371 41.0629 46.8845 40.8015 46.7548 40.476ZM23.8895 38.6667H16.0002C15.6465 38.6667 15.3074 38.8071 15.0574 39.0572C14.8073 39.3072 14.6668 39.6464 14.6668 40C14.6668 40.3536 14.8073 40.6928 15.0574 40.9428C15.3074 41.1929 15.6465 41.3333 16.0002 41.3333H23.8895C23.5498 43.3068 22.4827 45.0811 20.8987 46.3062C19.3147 47.5313 17.329 48.118 15.3336 47.9506C13.3382 47.7831 11.478 46.8737 10.1204 45.4018C8.76271 43.9298 8.00619 42.0024 8.00017 40C7.99833 37.9928 8.75109 36.0583 10.1091 34.5802C11.4671 33.1021 13.331 32.1886 15.3312 32.0207C17.3314 31.8529 19.3215 32.4431 20.9069 33.6741C22.4922 34.9052 23.5568 36.6873 23.8895 38.6667Z" fill="#333333"/>
</svg>
